<svg xmlns="http://www.w3.org/2000/svg" width="80.09" height="103.39" viewBox="0 0 80.09 103.39">
  <defs>
    <style>
      .cls-1 {
        fill: #abb869;
      }
    </style>
  </defs>
  <g id="Layer_2" data-name="Layer 2">
    <g id="Layer_1-2" data-name="Layer 1">
      <path class="cls-1" d="M36.87,98.58s-15.62-13.76,7.66-49S70.41,0,70.41,0,87,31,76.78,54,36.87,98.58,36.87,98.58Z"/>
      <path class="cls-1" d="M31.31,95.61c-1.46-9.76-2.65-17.8-6.92-26.18-1.8-3.52-6.15-11.82-14.72-17.06A29.9,29.9,0,0,0,.35,48.63a60.27,60.27,0,0,0,1,19.29c.83,3.77,4.3,19.68,16.92,29.24a33.23,33.23,0,0,0,13.94,6.23C32.07,101.54,31.79,98.84,31.31,95.61Z"/>
    </g>
  </g>
</svg>
